<svg xmlns="http://www.w3.org/2000/svg" viewBox="0 0 89.85 100"><defs><style>.cls-1{fill:#f2955e;}</style></defs><g id="圖層_2" data-name="圖層 2"><g id="圖層_1-2" data-name="圖層 1"><path class="cls-1" d="M80.28,49.39a4.38,4.38,0,0,1,0-4l9.09-18.19a4.43,4.43,0,0,0-4-6.41H72.65V37.45a3.33,3.33,0,0,1-6.65,0V16A10.64,10.64,0,0,0,55.35,5.32H18.59a1.33,1.33,0,0,0-1.33,1.33V57.16a1.33,1.33,0,0,0,1.33,1.33H51.73a3.31,3.31,0,0,1-.13,6.62H37.19v0A8.87,8.87,0,0,0,46.06,74H85.41a4.43,4.43,0,0,0,4-6.41Z"/><path class="cls-1" d="M5.32,0A5.32,5.32,0,0,0,0,5.32V94.68a5.32,5.32,0,0,0,10.64,0V5.32A5.32,5.32,0,0,0,5.32,0Z"/></g></g></svg>