<svg xmlns="http://www.w3.org/2000/svg" viewBox="0 0 96.81 100"><defs><style>.cls-1{fill:#f25041;}</style></defs><g id="圖層_2" data-name="圖層 2"><g id="圖層_1-2" data-name="圖層 1"><path class="cls-1" d="M89.25,48.82A78,78,0,0,1,82,55.69a37.21,37.21,0,0,1-33.3,36.42v-74l.3,0a26.76,26.76,0,0,1,2.2-7.43,44.35,44.35,0,0,0-6.35-.5A45.21,45.21,0,1,0,89.25,48.82ZM27.18,22.44C22.59,30,19.67,40.59,19.3,52.56H7.82A37.2,37.2,0,0,1,27.18,22.44ZM8.09,60.26H19.4c.68,10.92,3.52,20.52,7.78,27.56A37.24,37.24,0,0,1,8.09,60.26ZM41,91.41c-7.54-3.58-12.81-17.34-13.88-31.15H41Zm0-38.85H27c.58-14.63,6-29.91,14-33.71Z"/><path class="cls-1" d="M75.32,0A20.87,20.87,0,0,0,73,.13c-11.42,1.21-20,12.2-19,23.64,1.3,15,15.08,26.17,19.81,29.58a2.56,2.56,0,0,0,1.51.5,2.62,2.62,0,0,0,1.59-.55c4.91-3.83,20-16.82,20-31.81A21.49,21.49,0,0,0,75.32,0Zm0,31.52a10,10,0,1,1,10-10A10,10,0,0,1,75.32,31.52Z"/></g></g></svg>