<svg xmlns="http://www.w3.org/2000/svg" viewBox="0 0 100 100"><defs><style>.cls-1{fill:#f2f0eb;}</style></defs><g id="圖層_2" data-name="圖層 2"><g id="圖層_1-2" data-name="圖層 1"><path class="cls-1" d="M79.49,46.15H75.64a3.85,3.85,0,1,0,0,7.7h3.85a3.85,3.85,0,0,0,0-7.7ZM50,71.79a3.86,3.86,0,0,0-3.85,3.85v3.85a3.85,3.85,0,0,0,7.7,0V75.64A3.86,3.86,0,0,0,50,71.79ZM24.36,46.15H20.51a3.85,3.85,0,0,0,0,7.7h3.85a3.85,3.85,0,0,0,0-7.7ZM50,16.67a3.85,3.85,0,0,0-3.85,3.84v3.85a3.85,3.85,0,0,0,7.7,0V20.51A3.85,3.85,0,0,0,50,16.67Z"/><path class="cls-1" d="M50,0a50,50,0,1,0,50,50A50,50,0,0,0,50,0Zm0,87.18A37.18,37.18,0,1,1,87.18,50,37.22,37.22,0,0,1,50,87.18ZM66.77,28.62,51.62,43.77a7.21,7.21,0,0,0-3.94.21L36,32.24a3.85,3.85,0,0,0-5.44,5.44l12,12a7.25,7.25,0,0,0-.18,1.62A7.69,7.69,0,1,0,57.3,49L72.21,34.06a3.85,3.85,0,0,0-5.44-5.44Z"/></g></g></svg>