<svg xmlns="http://www.w3.org/2000/svg" viewBox="0 0 73.21 100"><defs><style>.cls-1{fill:#f25041;}</style></defs><g id="圖層_2" data-name="圖層 2"><g id="圖層_1-2" data-name="圖層 1"><path class="cls-1" d="M32.17,88.06a1.17,1.17,0,0,0-1.65,0l-2.38,2.38a1.17,1.17,0,0,0-.33.73l-.58,7.58a1.17,1.17,0,0,0,1.3,1.25l7.29-.84a1.15,1.15,0,0,0,.69-.33l2.38-2.38a1.17,1.17,0,0,0,0-1.66Zm31.44-18-6.72-6.72a1.16,1.16,0,0,0-1.65,0L36.41,82.16a1.19,1.19,0,0,0,0,1.66l6.72,6.72a1.17,1.17,0,0,0,1.66,0L63.61,71.72A1.17,1.17,0,0,0,63.61,70.06Zm-5-47.85a4.69,4.69,0,0,0-4.69-4.69H51.33a1.17,1.17,0,0,0-1.17,1.18v7A1.17,1.17,0,0,1,49,26.89H9.35a1.17,1.17,0,0,1-1.17-1.17v-7A1.18,1.18,0,0,0,7,17.52H4.68A4.69,4.69,0,0,0,0,22.21v60.9a4.68,4.68,0,0,0,4.68,4.68H22.89A7.17,7.17,0,0,1,24,86.3l3.21-3.21L58.56,51.74ZM31.62,55.88H15.23a2.93,2.93,0,1,1,0-5.85H31.62a2.93,2.93,0,1,1,0,5.85ZM43.33,44.17H15.23a2.93,2.93,0,1,1,0-5.85h28.1a2.93,2.93,0,1,1,0,5.85Z"/><path class="cls-1" d="M38.11,9.85a4.3,4.3,0,0,1-3-4A5.72,5.72,0,0,0,29.4,0h-.24a5.6,5.6,0,0,0-5.74,5.57,4.36,4.36,0,0,1-3,4.28C16.74,11.1,14,12.26,14,16.4v3.51a1.17,1.17,0,0,0,1.17,1.17H43.33a1.17,1.17,0,0,0,1.17-1.17V16.4C44.5,12.26,41.82,11.11,38.11,9.85ZM72.87,60.8l-6.72-6.72a1.19,1.19,0,0,0-1.66,0L61,57.61a1.19,1.19,0,0,0,0,1.66L67.68,66a1.17,1.17,0,0,0,1.66,0l3.53-3.53A1.17,1.17,0,0,0,72.87,60.8Z"/></g></g></svg>