<svg xmlns="http://www.w3.org/2000/svg" viewBox="0 0 100 98.45"><defs><style>.cls-1{fill:#f25041;}</style></defs><g id="圖層_2" data-name="圖層 2"><g id="圖層_1-2" data-name="圖層 1"><path class="cls-1" d="M93.94,0H81.82a6.06,6.06,0,0,0-6.06,6.06,6.06,6.06,0,1,1-12.12,0A6.06,6.06,0,0,0,57.58,0H42.42a6.06,6.06,0,0,0-6.06,6.06,6.06,6.06,0,1,1-12.12,0A6.06,6.06,0,0,0,18.18,0H6.06A6.06,6.06,0,0,0,0,6.06v69.7a6.06,6.06,0,0,0,6.06,6.06H93.94A6.06,6.06,0,0,0,100,75.76V6.06A6.06,6.06,0,0,0,93.94,0ZM26.18,27.54a8.77,8.77,0,1,1-8.77,8.77A8.77,8.77,0,0,1,26.18,27.54ZM40.91,61.73a2.1,2.1,0,0,1-2,2.18H13.46a2.1,2.1,0,0,1-2-2.18V59.67a6.9,6.9,0,0,1,6.63-7.14h16.2a6.9,6.9,0,0,1,6.63,7.14Zm40.91-1.88H54.55a3.79,3.79,0,0,1,0-7.58H81.82a3.79,3.79,0,1,1,0,7.58Zm0-15.15H54.55a3.79,3.79,0,1,1,0-7.58H81.82a3.79,3.79,0,1,1,0,7.58Z"/><path class="cls-1" d="M90.91,89.36H6.06a4.55,4.55,0,0,0,0,9.09H90.91a4.55,4.55,0,0,0,0-9.09Z"/></g></g></svg>