<svg xmlns="http://www.w3.org/2000/svg" viewBox="0 0 100 97.14"><defs><style>.cls-1{fill:#151515;}</style></defs><g id="圖層_2" data-name="圖層 2"><g id="圖層_1-2" data-name="圖層 1"><path class="cls-1" d="M78.23,6.84A10,10,0,0,0,68.74,0H31.26a10,10,0,0,0-9.49,6.84L15,27.14h9L29.91,9.55a1.42,1.42,0,0,1,1.35-1H68.74a1.41,1.41,0,0,1,1.35,1L76,27.14h9Z"/><path class="cls-1" d="M97.14,34.29H2.86A2.85,2.85,0,0,0,0,37.14V51.43a2.86,2.86,0,0,0,2.86,2.86h4.9l5.79,38a5.7,5.7,0,0,0,5.65,4.85H80.8a5.7,5.7,0,0,0,5.65-4.85l5.79-38h4.9A2.86,2.86,0,0,0,100,51.43V37.14A2.85,2.85,0,0,0,97.14,34.29ZM34.29,81.43a4.29,4.29,0,0,1-8.58,0V62.86a4.29,4.29,0,0,1,8.58,0Zm20,0a4.29,4.29,0,0,1-8.58,0V62.86a4.29,4.29,0,0,1,8.58,0Zm20,0a4.29,4.29,0,0,1-8.58,0V62.86a4.29,4.29,0,0,1,8.58,0Z"/></g></g></svg>